solid part_test
   facet normal 0.000000e+00 -1.000000e+00 -6.938894e-17
      outer loop
         vertex -1.788139e-09 -3.000000e-02 -5.000000e-02
         vertex 9.000000e-02 -3.000000e-02 -5.000000e-02
         vertex -1.788139e-09 -3.000000e-02 5.000000e-02
      endloop
   endfacet
   facet normal 0.000000e+00 -1.000000e+00 -6.938894e-17
      outer loop
         vertex -1.788139e-09 -3.000000e-02 5.000000e-02
         vertex 9.000000e-02 -3.000000e-02 -5.000000e-02
         vertex 9.000000e-02 -3.000000e-02 5.000000e-02
      endloop
   endfacet
   facet normal 0.000000e+00 6.938894e-17 -1.000000e+00
      outer loop
         vertex -1.788139e-09 3.000000e-02 -5.000000e-02
         vertex 9.000000e-02 3.000000e-02 -5.000000e-02
         vertex -1.788139e-09 -3.000000e-02 -5.000000e-02
      endloop
   endfacet
   facet normal 0.000000e+00 6.938894e-17 -1.000000e+00
      outer loop
         vertex -1.788139e-09 -3.000000e-02 -5.000000e-02
         vertex 9.000000e-02 3.000000e-02 -5.000000e-02
         vertex 9.000000e-02 -3.000000e-02 -5.000000e-02
      endloop
   endfacet
   facet normal 0.000000e+00 1.000000e+00 6.938894e-17
      outer loop
         vertex -1.788139e-09 3.000000e-02 5.000000e-02
         vertex 9.000000e-02 3.000000e-02 5.000000e-02
         vertex -1.788139e-09 3.000000e-02 -5.000000e-02
      endloop
   endfacet
   facet normal 0.000000e+00 1.000000e+00 6.938894e-17
      outer loop
         vertex -1.788139e-09 3.000000e-02 -5.000000e-02
         vertex 9.000000e-02 3.000000e-02 5.000000e-02
         vertex 9.000000e-02 3.000000e-02 -5.000000e-02
      endloop
   endfacet
   facet normal 0.000000e+00 -6.938894e-17 1.000000e+00
      outer loop
         vertex -1.788139e-09 -3.000000e-02 5.000000e-02
         vertex 9.000000e-02 -3.000000e-02 5.000000e-02
         vertex -1.788139e-09 3.000000e-02 5.000000e-02
      endloop
   endfacet
   facet normal -0.000000e+00 -6.938894e-17 1.000000e+00
      outer loop
         vertex -1.788139e-09 3.000000e-02 5.000000e-02
         vertex 9.000000e-02 -3.000000e-02 5.000000e-02
         vertex 9.000000e-02 3.000000e-02 5.000000e-02
      endloop
   endfacet
   facet normal 1.000000e+00 0.000000e+00 -0.000000e+00
      outer loop
         vertex 9.000000e-02 3.000000e-02 -5.000000e-02
         vertex 9.000000e-02 3.000000e-02 5.000000e-02
         vertex 9.000000e-02 -3.000000e-02 -5.000000e-02
      endloop
   endfacet
   facet normal 1.000000e+00 -0.000000e+00 0.000000e+00
      outer loop
         vertex 9.000000e-02 -3.000000e-02 -5.000000e-02
         vertex 9.000000e-02 3.000000e-02 5.000000e-02
         vertex 9.000000e-02 -3.000000e-02 5.000000e-02
      endloop
   endfacet
   facet normal -1.000000e+00 0.000000e+00 0.000000e+00
      outer loop
         vertex -1.788139e-09 3.000000e-02 5.000000e-02
         vertex -1.788139e-09 3.000000e-02 -5.000000e-02
         vertex -1.788139e-09 -3.000000e-02 5.000000e-02
      endloop
   endfacet
   facet normal -1.000000e+00 0.000000e+00 0.000000e+00
      outer loop
         vertex -1.788139e-09 -3.000000e-02 5.000000e-02
         vertex -1.788139e-09 3.000000e-02 -5.000000e-02
         vertex -1.788139e-09 -3.000000e-02 -5.000000e-02
      endloop
   endfacet
endsolid